<?xml version="1.0" encoding="UTF-8"?>
<!DOCTYPE svg PUBLIC "-//W3C//DTD SVG 1.1//EN" "http://www.w3.org/Graphics/SVG/1.1/DTD/svg11.dtd">
<!-- Creator: CorelDRAW (Versão de avaliação) -->
<svg xmlns="http://www.w3.org/2000/svg" xml:space="preserve" width="45.5311mm" height="48.2848mm" version="1.1" style="shape-rendering:geometricPrecision; text-rendering:geometricPrecision; image-rendering:optimizeQuality; fill-rule:evenodd; clip-rule:evenodd"
viewBox="0 0 1900.38 2015.31"
 xmlns:xlink="http://www.w3.org/1999/xlink"
 xmlns:xodm="http://www.corel.com/coreldraw/odm/2003">
 <defs>
  <style type="text/css">
   <![CDATA[
    .fil92 {fill:white}
    .fil91 {fill:#FEFFFF}
    .fil90 {fill:#FDFEFF}
    .fil89 {fill:#FBFEFF}
    .fil88 {fill:#FAFDFF}
    .fil87 {fill:#F9FDFF}
    .fil86 {fill:#F8FCFF}
    .fil85 {fill:#F6FCFE}
    .fil84 {fill:#F5FBFE}
    .fil83 {fill:#F4FBFE}
    .fil82 {fill:#F3FAFE}
    .fil81 {fill:#F2FAFE}
    .fil80 {fill:#F0F9FE}
    .fil79 {fill:#EFF9FE}
    .fil78 {fill:#EEF8FE}
    .fil77 {fill:#EDF8FE}
    .fil76 {fill:#EBF8FE}
    .fil75 {fill:#EAF7FE}
    .fil74 {fill:#E9F7FE}
    .fil73 {fill:#E8F6FE}
    .fil72 {fill:#E7F6FD}
    .fil71 {fill:#E6F6FD}
    .fil70 {fill:#E5F5FD}
    .fil69 {fill:#E4F5FD}
    .fil68 {fill:#E3F4FD}
    .fil67 {fill:#E2F4FD}
    .fil66 {fill:#E1F4FD}
    .fil65 {fill:#E0F3FD}
    .fil64 {fill:#DFF3FD}
    .fil63 {fill:#DEF3FD}
    .fil62 {fill:#DDF2FD}
    .fil61 {fill:#DCF2FD}
    .fil60 {fill:#DBF1FD}
    .fil59 {fill:#DAF1FD}
    .fil58 {fill:#D9F1FD}
    .fil57 {fill:#D7F0FC}
    .fil56 {fill:#D6F0FC}
    .fil55 {fill:#D4EFFC}
    .fil54 {fill:#D3EEFC}
    .fil53 {fill:#D1EEFC}
    .fil52 {fill:#D0EDFC}
    .fil51 {fill:#CEEDFC}
    .fil50 {fill:#CBECFC}
    .fil49 {fill:#C9EBFC}
    .fil48 {fill:#C7EAFB}
    .fil47 {fill:#C4E9FB}
    .fil46 {fill:#C2E9FB}
    .fil45 {fill:#C0E8FB}
    .fil44 {fill:#BDE7FB}
    .fil43 {fill:#BAE6FB}
    .fil42 {fill:#B6E4FA}
    .fil41 {fill:#B4E4FA}
    .fil40 {fill:#B0E2FA}
    .fil39 {fill:#ADE1FA}
    .fil38 {fill:#A9E0F9}
    .fil37 {fill:#A5DFF9}
    .fil36 {fill:#A1DEF9}
    .fil35 {fill:#9DDCF9}
    .fil34 {fill:#98DBF8}
    .fil33 {fill:#94DAF8}
    .fil32 {fill:#8FD8F8}
    .fil31 {fill:#8AD7F8}
    .fil30 {fill:#85D5F7}
    .fil29 {fill:#80D4F7}
    .fil28 {fill:#79D2F7}
    .fil27 {fill:#73D1F6}
    .fil26 {fill:#6ECFF6}
    .fil25 {fill:#65CEF6}
    .fil24 {fill:#5ECCF5}
    .fil23 {fill:#56CBF5}
    .fil22 {fill:#4DC9F5}
    .fil21 {fill:#42C7F4}
    .fil20 {fill:#32C6F4}
    .fil19 {fill:#1FC4F4}
    .fil18 {fill:#09C2F3}
    .fil17 {fill:#00C1F3}
    .fil16 {fill:#00BFF3}
    .fil15 {fill:#00BEF2}
    .fil14 {fill:#00BCF2}
    .fil13 {fill:#00BBF2}
    .fil12 {fill:#00B9F1}
    .fil11 {fill:#00B8F1}
    .fil10 {fill:#00B6F1}
    .fil9 {fill:#00B5F1}
    .fil8 {fill:#00B4F0}
    .fil7 {fill:#00B3F0}
    .fil6 {fill:#00B2F0}
    .fil5 {fill:#00B1F0}
    .fil4 {fill:#00B0F0}
    .fil3 {fill:#00AFF0}
    .fil2 {fill:#00AFEF}
    .fil1 {fill:#00AFEF}
    .fil0 {fill:#00AFEF}
    .fil93 {fill:#00AFEF;fill-rule:nonzero}
   ]]>
  </style>
    <clipPath id="id0">
     <path d="M-0 925.48l542.24 -109.76 -308.27 -481.62 493.55 256.32 13.99 -590.42 256.34 524.49 330.92 -473.71 -78.79 592.33 521.43 -176.05 -383.81 433.92 512.78 188.85 -542.24 109.76 308.26 481.62 -493.55 -256.32 -13.99 590.42 -256.34 -524.49 -330.91 473.71 78.79 -592.33 -521.43 176.05 383.81 -433.92 -512.79 -188.85z"/>
    </clipPath>
 </defs>
 <g id="Camada_x0020_1">
  <metadata id="CorelCorpID_0Corel-Layer"/>
  <g>
   <g style="clip-path:url(#id0)">
    <polygon class="fil0" points="66.96,2078.72 66.65,2073.35 1951.14,1963.92 1951.45,1969.29 "/>
    <polygon id="_1" class="fil1" points="66.89,2077.34 66.19,2065.36 1950.67,1955.92 1951.37,1967.91 "/>
    <polygon id="_2" class="fil2" points="66.42,2069.35 65.72,2057.36 1950.21,1947.93 1950.9,1959.92 "/>
    <polygon id="_3" class="fil3" points="65.95,2061.36 65.26,2049.37 1949.74,1939.94 1950.44,1951.93 "/>
    <polygon id="_4" class="fil4" points="65.49,2053.37 64.79,2041.38 1949.28,1931.95 1949.98,1943.94 "/>
    <polygon id="_5" class="fil5" points="65.03,2045.38 64.33,2033.39 1948.82,1923.96 1949.51,1935.94 "/>
    <polygon id="_6" class="fil6" points="64.56,2037.38 63.87,2025.4 1948.35,1915.96 1949.05,1927.95 "/>
    <polygon id="_7" class="fil7" points="64.1,2029.39 63.4,2017.4 1947.89,1907.97 1948.58,1919.96 "/>
    <polygon id="_8" class="fil8" points="63.63,2021.4 62.94,2009.41 1947.42,1899.98 1948.12,1911.97 "/>
    <polygon id="_9" class="fil9" points="63.17,2013.41 62.47,2001.42 1946.96,1891.99 1947.66,1903.98 "/>
    <polygon id="_10" class="fil10" points="62.71,2005.42 62.01,1993.43 1946.49,1884 1947.19,1895.98 "/>
    <polygon id="_11" class="fil11" points="62.24,1997.42 61.55,1985.44 1946.03,1876.01 1946.73,1887.99 "/>
    <polygon id="_12" class="fil12" points="61.78,1989.43 61.08,1977.44 1945.57,1868.01 1946.26,1880 "/>
    <polygon id="_13" class="fil13" points="61.31,1981.44 60.62,1969.45 1945.1,1860.02 1945.8,1872.01 "/>
    <polygon id="_14" class="fil14" points="60.85,1973.45 60.15,1961.46 1944.64,1852.03 1945.33,1864.02 "/>
    <polygon id="_15" class="fil15" points="60.39,1965.46 59.69,1953.47 1944.17,1844.04 1944.87,1856.03 "/>
    <polygon id="_16" class="fil16" points="59.92,1957.46 59.23,1945.48 1943.71,1836.05 1944.41,1848.03 "/>
    <polygon id="_17" class="fil17" points="59.46,1949.47 58.76,1937.48 1943.25,1828.05 1943.94,1840.04 "/>
    <polygon id="_18" class="fil18" points="58.99,1941.48 58.3,1929.49 1942.78,1820.06 1943.48,1832.05 "/>
    <polygon id="_19" class="fil19" points="58.53,1933.49 57.83,1921.5 1942.32,1812.07 1943.01,1824.06 "/>
    <polygon id="_20" class="fil20" points="58.07,1925.5 57.37,1913.51 1941.85,1804.08 1942.55,1816.07 "/>
    <polygon id="_21" class="fil21" points="57.6,1917.5 56.91,1905.52 1941.39,1796.09 1942.09,1808.07 "/>
    <polygon id="_22" class="fil22" points="57.14,1909.51 56.44,1897.52 1940.93,1788.09 1941.62,1800.08 "/>
    <polygon id="_23" class="fil23" points="56.67,1901.52 55.98,1889.53 1940.46,1780.1 1941.16,1792.09 "/>
    <polygon id="_24" class="fil24" points="56.21,1893.53 55.51,1881.54 1940,1772.11 1940.69,1784.1 "/>
    <polygon id="_25" class="fil25" points="55.75,1885.54 55.05,1873.55 1939.53,1764.12 1940.23,1776.11 "/>
    <polygon id="_26" class="fil26" points="55.28,1877.54 54.58,1865.56 1939.07,1756.13 1939.77,1768.11 "/>
    <polygon id="_27" class="fil27" points="54.82,1869.55 54.12,1857.56 1938.61,1748.13 1939.3,1760.12 "/>
    <polygon id="_28" class="fil28" points="54.35,1861.56 53.66,1849.57 1938.14,1740.14 1938.84,1752.13 "/>
    <polygon id="_29" class="fil29" points="53.89,1853.57 53.19,1841.58 1937.68,1732.15 1938.37,1744.14 "/>
    <polygon id="_30" class="fil30" points="53.42,1845.58 52.73,1833.59 1937.21,1724.16 1937.91,1736.15 "/>
    <polygon id="_31" class="fil31" points="52.96,1837.58 52.26,1825.6 1936.75,1716.17 1937.45,1728.15 "/>
    <polygon id="_32" class="fil32" points="52.5,1829.59 51.8,1817.6 1936.29,1708.17 1936.98,1720.16 "/>
    <polygon id="_33" class="fil33" points="52.03,1821.6 51.34,1809.61 1935.82,1700.18 1936.52,1712.17 "/>
    <polygon id="_34" class="fil34" points="51.57,1813.61 50.87,1801.62 1935.35,1692.19 1936.05,1704.18 "/>
    <polygon id="_35" class="fil35" points="51.1,1805.62 50.41,1793.63 1934.89,1684.2 1935.59,1696.19 "/>
    <polygon id="_36" class="fil36" points="50.64,1797.63 49.94,1785.64 1934.43,1676.21 1935.13,1688.19 "/>
    <polygon id="_37" class="fil37" points="50.18,1789.63 49.48,1777.65 1933.97,1668.21 1934.66,1680.21 "/>
    <polygon id="_38" class="fil38" points="49.71,1781.64 49.02,1769.65 1933.5,1660.23 1934.19,1672.21 "/>
    <polygon id="_39" class="fil39" points="49.25,1773.65 48.55,1761.66 1933.03,1652.23 1933.73,1664.22 "/>
    <polygon id="_40" class="fil40" points="48.78,1765.66 48.09,1753.67 1932.57,1644.24 1933.27,1656.23 "/>
    <polygon id="_41" class="fil41" points="48.32,1757.67 47.62,1745.68 1932.11,1636.25 1932.8,1648.23 "/>
    <polygon id="_42" class="fil42" points="47.86,1749.67 47.16,1737.69 1931.64,1628.25 1932.34,1640.25 "/>
    <polygon id="_43" class="fil43" points="47.39,1741.68 46.7,1729.69 1931.18,1620.27 1931.87,1632.25 "/>
    <polygon id="_44" class="fil44" points="46.93,1733.69 46.23,1721.7 1930.72,1612.27 1931.41,1624.26 "/>
    <polygon id="_45" class="fil45" points="46.46,1725.7 45.77,1713.71 1930.25,1604.28 1930.95,1616.27 "/>
    <polygon id="_46" class="fil46" points="46,1717.71 45.3,1705.72 1929.79,1596.29 1930.48,1608.28 "/>
    <polygon id="_47" class="fil47" points="45.54,1709.71 44.84,1697.73 1929.32,1588.3 1930.02,1600.29 "/>
    <polygon id="_48" class="fil48" points="45.07,1701.72 44.38,1689.73 1928.86,1580.31 1929.56,1592.29 "/>
    <polygon id="_49" class="fil49" points="44.61,1693.73 43.91,1681.74 1928.4,1572.31 1929.09,1584.3 "/>
    <polygon id="_50" class="fil50" points="44.14,1685.74 43.45,1673.75 1927.93,1564.32 1928.63,1576.31 "/>
    <polygon id="_51" class="fil51" points="43.68,1677.75 42.98,1665.76 1927.47,1556.33 1928.16,1568.32 "/>
    <polygon id="_52" class="fil52" points="43.22,1669.75 42.52,1657.77 1927,1548.34 1927.7,1560.33 "/>
    <polygon id="_53" class="fil53" points="42.75,1661.76 42.06,1649.77 1926.54,1540.35 1927.24,1552.33 "/>
    <polygon id="_54" class="fil54" points="42.29,1653.77 41.59,1641.78 1926.08,1532.35 1926.77,1544.34 "/>
    <polygon id="_55" class="fil55" points="41.82,1645.78 41.13,1633.79 1925.61,1524.36 1926.31,1536.35 "/>
    <polygon id="_56" class="fil56" points="41.36,1637.79 40.66,1625.8 1925.15,1516.37 1925.84,1528.36 "/>
    <polygon id="_57" class="fil57" points="40.89,1629.79 40.2,1617.81 1924.68,1508.38 1925.38,1520.37 "/>
    <polygon id="_58" class="fil58" points="40.43,1621.8 39.73,1609.81 1924.22,1500.39 1924.92,1512.37 "/>
    <polygon id="_59" class="fil59" points="39.97,1613.81 39.27,1601.83 1923.76,1492.39 1924.45,1504.38 "/>
    <polygon id="_60" class="fil60" points="39.5,1605.82 38.81,1593.83 1923.29,1484.4 1923.99,1496.39 "/>
    <polygon id="_61" class="fil61" points="39.04,1597.83 38.34,1585.84 1922.83,1476.41 1923.52,1488.4 "/>
    <polygon id="_62" class="fil62" points="38.57,1589.83 37.88,1577.85 1922.36,1468.42 1923.06,1480.41 "/>
    <polygon id="_63" class="fil63" points="38.11,1581.85 37.41,1569.86 1921.9,1460.43 1922.6,1472.41 "/>
    <polygon id="_64" class="fil63" points="37.65,1573.85 36.95,1561.87 1921.44,1452.43 1922.13,1464.42 "/>
    <polygon id="_65" class="fil64" points="37.18,1565.86 36.49,1553.87 1920.97,1444.44 1921.66,1456.43 "/>
    <polygon id="_66" class="fil65" points="36.72,1557.87 36.02,1545.88 1920.5,1436.45 1921.2,1448.44 "/>
    <polygon id="_67" class="fil65" points="36.25,1549.88 35.56,1537.89 1920.04,1428.46 1920.74,1440.45 "/>
    <polygon id="_68" class="fil66" points="35.79,1541.89 35.09,1529.9 1919.58,1420.47 1920.27,1432.45 "/>
    <polygon id="_69" class="fil66" points="35.33,1533.89 34.63,1521.91 1919.11,1412.48 1919.81,1424.46 "/>
    <polygon id="_70" class="fil67" points="34.86,1525.9 34.17,1513.91 1918.65,1404.48 1919.34,1416.47 "/>
    <polygon id="_71" class="fil67" points="34.4,1517.91 33.7,1505.92 1918.18,1396.49 1918.88,1408.48 "/>
    <polygon id="_72" class="fil67" points="33.93,1509.92 33.24,1497.93 1917.72,1388.5 1918.42,1400.49 "/>
    <polygon id="_73" class="fil68" points="33.47,1501.93 32.77,1489.94 1917.26,1380.51 1917.95,1392.5 "/>
    <polygon id="_74" class="fil68" points="33.01,1493.93 32.31,1481.95 1916.79,1372.52 1917.49,1384.5 "/>
    <polygon id="_75" class="fil69" points="32.54,1485.94 31.85,1473.95 1916.33,1364.52 1917.02,1376.51 "/>
    <polygon id="_76" class="fil69" points="32.08,1477.95 31.38,1465.96 1915.86,1356.53 1916.56,1368.52 "/>
    <polygon id="_77" class="fil69" points="31.61,1469.96 30.92,1457.97 1915.4,1348.54 1916.1,1360.53 "/>
    <polygon id="_78" class="fil70" points="31.15,1461.97 30.45,1449.98 1914.94,1340.55 1915.63,1352.54 "/>
    <polygon id="_79" class="fil70" points="30.69,1453.97 29.99,1441.99 1914.47,1332.56 1915.17,1344.54 "/>
    <polygon id="_80" class="fil70" points="30.22,1445.98 29.53,1433.99 1914.01,1324.56 1914.71,1336.55 "/>
    <polygon id="_81" class="fil71" points="29.76,1437.99 29.06,1426 1913.55,1316.57 1914.24,1328.56 "/>
    <polygon id="_82" class="fil71" points="29.29,1430 28.59,1418.01 1913.08,1308.58 1913.78,1320.57 "/>
    <polygon id="_83" class="fil72" points="28.83,1422.01 28.13,1410.02 1912.62,1300.59 1913.31,1312.58 "/>
    <polygon id="_84" class="fil72" points="28.37,1414.01 27.67,1402.03 1912.15,1292.6 1912.85,1304.58 "/>
    <polygon id="_85" class="fil72" points="27.9,1406.02 27.2,1394.03 1911.69,1284.6 1912.39,1296.59 "/>
    <polygon id="_86" class="fil73" points="27.43,1398.03 26.74,1386.04 1911.23,1276.61 1911.92,1288.6 "/>
    <polygon id="_87" class="fil73" points="26.97,1390.04 26.28,1378.05 1910.76,1268.62 1911.46,1280.61 "/>
    <polygon id="_88" class="fil73" points="26.51,1382.05 25.81,1370.06 1910.3,1260.63 1910.99,1272.62 "/>
    <polygon id="_89" class="fil74" points="26.04,1374.05 25.35,1362.07 1909.83,1252.64 1910.53,1264.62 "/>
    <polygon id="_90" class="fil74" points="25.58,1366.06 24.88,1354.07 1909.37,1244.64 1910.07,1256.63 "/>
    <polygon id="_91" class="fil74" points="25.12,1358.07 24.42,1346.08 1908.91,1236.65 1909.6,1248.64 "/>
    <polygon id="_92" class="fil75" points="24.65,1350.08 23.96,1338.09 1908.44,1228.66 1909.14,1240.65 "/>
    <polygon id="_93" class="fil75" points="24.19,1342.09 23.49,1330.1 1907.97,1220.67 1908.67,1232.66 "/>
    <polygon id="_94" class="fil75" points="23.72,1334.1 23.03,1322.11 1907.51,1212.68 1908.21,1224.66 "/>
    <polygon id="_95" class="fil76" points="23.26,1326.1 22.56,1314.12 1907.05,1204.68 1907.75,1216.68 "/>
    <polygon id="_96" class="fil76" points="22.8,1318.11 22.1,1306.12 1906.58,1196.7 1907.28,1208.68 "/>
    <polygon id="_97" class="fil76" points="22.33,1310.12 21.64,1298.13 1906.12,1188.7 1906.81,1200.69 "/>
    <polygon id="_98" class="fil76" points="21.87,1302.13 21.17,1290.14 1905.65,1180.71 1906.35,1192.7 "/>
    <polygon id="_99" class="fil77" points="21.4,1294.14 20.71,1282.15 1905.19,1172.72 1905.89,1184.7 "/>
    <polygon id="_100" class="fil77" points="20.94,1286.14 20.24,1274.16 1904.73,1164.72 1905.42,1176.72 "/>
    <polygon id="_101" class="fil77" points="20.48,1278.15 19.78,1266.16 1904.26,1156.74 1904.96,1168.72 "/>
    <polygon id="_102" class="fil78" points="20.01,1270.16 19.32,1258.17 1903.8,1148.74 1904.49,1160.73 "/>
    <polygon id="_103" class="fil78" points="19.55,1262.17 18.85,1250.18 1903.33,1140.75 1904.03,1152.74 "/>
    <polygon id="_104" class="fil78" points="19.08,1254.18 18.39,1242.19 1902.87,1132.76 1903.57,1144.75 "/>
    <polygon id="_105" class="fil78" points="18.62,1246.18 17.92,1234.2 1902.41,1124.77 1903.1,1136.76 "/>
    <polygon id="_106" class="fil79" points="18.16,1238.19 17.46,1226.2 1901.94,1116.78 1902.64,1128.76 "/>
    <polygon id="_107" class="fil79" points="17.69,1230.2 17,1218.21 1901.48,1108.78 1902.17,1120.77 "/>
    <polygon id="_108" class="fil79" points="17.23,1222.21 16.53,1210.22 1901.01,1100.79 1901.71,1112.78 "/>
    <polygon id="_109" class="fil79" points="16.76,1214.22 16.06,1202.23 1900.55,1092.8 1901.25,1104.79 "/>
    <polygon id="_110" class="fil80" points="16.3,1206.22 15.6,1194.24 1900.09,1084.81 1900.78,1096.8 "/>
    <polygon id="_111" class="fil80" points="15.84,1198.23 15.14,1186.24 1899.62,1076.82 1900.32,1088.8 "/>
    <polygon id="_112" class="fil80" points="15.37,1190.24 14.68,1178.25 1899.16,1068.82 1899.85,1080.81 "/>
    <polygon id="_113" class="fil80" points="14.9,1182.25 14.21,1170.26 1898.7,1060.83 1899.39,1072.82 "/>
    <polygon id="_114" class="fil81" points="14.44,1174.26 13.74,1162.27 1898.23,1052.84 1898.93,1064.83 "/>
    <polygon id="_115" class="fil81" points="13.98,1166.26 13.28,1154.28 1897.77,1044.85 1898.46,1056.84 "/>
    <polygon id="_116" class="fil81" points="13.51,1158.27 12.82,1146.28 1897.3,1036.86 1898,1048.84 "/>
    <polygon id="_117" class="fil81" points="13.05,1150.28 12.35,1138.3 1896.84,1028.86 1897.54,1040.85 "/>
    <polygon id="_118" class="fil82" points="12.58,1142.29 11.89,1130.3 1896.38,1020.87 1897.07,1032.86 "/>
    <polygon id="_119" class="fil82" points="12.12,1134.3 11.42,1122.31 1895.91,1012.88 1896.61,1024.87 "/>
    <polygon id="_120" class="fil82" points="11.66,1126.3 10.96,1114.32 1895.45,1004.89 1896.14,1016.88 "/>
    <polygon id="_121" class="fil82" points="11.19,1118.32 10.5,1106.32 1894.98,996.9 1895.68,1008.88 "/>
    <polygon id="_122" class="fil83" points="10.73,1110.32 10.03,1098.34 1894.52,988.9 1895.22,1000.89 "/>
    <polygon id="_123" class="fil83" points="10.26,1102.33 9.57,1090.34 1894.06,980.91 1894.75,992.9 "/>
    <polygon id="_124" class="fil83" points="9.8,1094.34 9.11,1082.35 1893.59,972.92 1894.28,984.91 "/>
    <polygon id="_125" class="fil83" points="9.34,1086.34 8.64,1074.36 1893.12,964.93 1893.82,976.92 "/>
    <polygon id="_126" class="fil83" points="8.87,1078.36 8.18,1066.37 1892.66,956.94 1893.36,968.92 "/>
    <polygon id="_127" class="fil84" points="8.41,1070.36 7.71,1058.38 1892.2,948.95 1892.89,960.93 "/>
    <polygon id="_128" class="fil84" points="7.95,1062.37 7.25,1050.38 1891.73,940.95 1892.43,952.94 "/>
    <polygon id="_129" class="fil84" points="7.48,1054.38 6.79,1042.39 1891.27,932.96 1891.96,944.95 "/>
    <polygon id="_130" class="fil84" points="7.02,1046.39 6.32,1034.4 1890.8,924.97 1891.5,936.96 "/>
    <polygon id="_131" class="fil84" points="6.55,1038.4 5.86,1026.41 1890.34,916.98 1891.04,928.97 "/>
    <polygon id="_132" class="fil85" points="6.09,1030.4 5.39,1018.42 1889.88,908.99 1890.57,920.97 "/>
    <polygon id="_133" class="fil85" points="5.63,1022.41 4.93,1010.42 1889.41,900.99 1890.11,912.98 "/>
    <polygon id="_134" class="fil85" points="5.16,1014.42 4.47,1002.43 1888.95,893 1889.64,904.99 "/>
    <polygon id="_135" class="fil85" points="4.7,1006.43 4,994.44 1888.48,885.01 1889.18,897 "/>
    <polygon id="_136" class="fil85" points="4.23,998.44 3.54,986.45 1888.02,877.02 1888.72,889.01 "/>
    <polygon id="_137" class="fil85" points="3.77,990.44 3.07,978.46 1887.56,869.03 1888.25,881.01 "/>
    <polygon id="_138" class="fil86" points="3.31,982.45 2.61,970.46 1887.09,861.03 1887.79,873.02 "/>
    <polygon id="_139" class="fil86" points="2.84,974.46 2.15,962.47 1886.63,853.04 1887.32,865.03 "/>
    <polygon id="_140" class="fil86" points="2.37,966.47 1.68,954.48 1886.16,845.05 1886.86,857.04 "/>
    <polygon id="_141" class="fil86" points="1.91,958.48 1.21,946.49 1885.7,837.06 1886.4,849.05 "/>
    <polygon id="_142" class="fil86" points="1.45,950.48 0.75,938.5 1885.24,829.07 1885.93,841.05 "/>
    <polygon id="_143" class="fil86" points="0.99,942.49 0.29,930.5 1884.77,821.07 1885.47,833.06 "/>
    <polygon id="_144" class="fil87" points="0.52,934.5 -0.18,922.51 1884.31,813.08 1885,825.07 "/>
    <polygon id="_145" class="fil87" points="0.05,926.51 -0.64,914.52 1883.84,805.09 1884.54,817.08 "/>
    <polygon id="_146" class="fil87" points="-0.41,918.52 -1.11,906.53 1883.38,797.1 1884.08,809.09 "/>
    <polygon id="_147" class="fil87" points="-0.87,910.52 -1.57,898.54 1882.92,789.11 1883.61,801.09 "/>
    <polygon id="_148" class="fil87" points="-1.34,902.53 -2.03,890.54 1882.45,781.11 1883.15,793.1 "/>
    <polygon id="_149" class="fil87" points="-1.8,894.54 -2.5,882.55 1881.99,773.12 1882.68,785.11 "/>
    <polygon id="_150" class="fil87" points="-2.27,886.55 -2.96,874.56 1881.53,765.13 1882.22,777.12 "/>
    <polygon id="_151" class="fil87" points="-2.73,878.56 -3.43,866.57 1881.06,757.14 1881.75,769.13 "/>
    <polygon id="_152" class="fil88" points="-3.19,870.57 -3.89,858.58 1880.59,749.15 1881.29,761.13 "/>
    <polygon id="_153" class="fil88" points="-3.66,862.57 -4.35,850.59 1880.13,741.15 1880.83,753.14 "/>
    <polygon id="_154" class="fil88" points="-4.12,854.58 -4.82,842.59 1879.67,733.17 1880.37,745.15 "/>
    <polygon id="_155" class="fil88" points="-4.59,846.59 -5.28,834.6 1879.2,725.17 1879.9,737.16 "/>
    <polygon id="_156" class="fil88" points="-5.05,838.6 -5.75,826.61 1878.74,717.18 1879.43,729.17 "/>
    <polygon id="_157" class="fil88" points="-5.51,830.61 -6.21,818.62 1878.27,709.19 1878.97,721.17 "/>
    <polygon id="_158" class="fil88" points="-5.98,822.61 -6.67,810.63 1877.81,701.19 1878.51,713.19 "/>
    <polygon id="_159" class="fil88" points="-6.44,814.62 -7.14,802.63 1877.35,693.21 1878.04,705.19 "/>
    <polygon id="_160" class="fil89" points="-6.9,806.63 -7.6,794.64 1876.88,685.21 1877.58,697.2 "/>
    <polygon id="_161" class="fil89" points="-7.37,798.64 -8.06,786.65 1876.42,677.22 1877.11,689.21 "/>
    <polygon id="_162" class="fil89" points="-7.83,790.65 -8.53,778.66 1875.95,669.23 1876.65,681.22 "/>
    <polygon id="_163" class="fil89" points="-8.3,782.65 -8.99,770.67 1875.49,661.24 1876.19,673.23 "/>
    <polygon id="_164" class="fil89" points="-8.76,774.66 -9.46,762.67 1875.03,653.25 1875.72,665.23 "/>
    <polygon id="_165" class="fil89" points="-9.22,766.67 -9.92,754.68 1874.56,645.25 1875.26,657.24 "/>
    <polygon id="_166" class="fil89" points="-9.69,758.68 -10.38,746.69 1874.1,637.26 1874.79,649.25 "/>
    <polygon id="_167" class="fil89" points="-10.15,750.69 -10.85,738.7 1873.63,629.27 1874.33,641.26 "/>
    <polygon id="_168" class="fil89" points="-10.62,742.69 -11.32,730.71 1873.17,621.28 1873.87,633.27 "/>
    <polygon id="_169" class="fil89" points="-11.08,734.7 -11.78,722.71 1872.71,613.29 1873.4,625.27 "/>
    <polygon id="_170" class="fil90" points="-11.54,726.71 -12.24,714.72 1872.24,605.29 1872.94,617.28 "/>
    <polygon id="_171" class="fil90" points="-12.01,718.72 -12.71,706.73 1871.78,597.3 1872.47,609.29 "/>
    <polygon id="_172" class="fil90" points="-12.48,710.73 -13.17,698.74 1871.31,589.31 1872.01,601.3 "/>
    <polygon id="_173" class="fil90" points="-12.94,702.73 -13.64,690.75 1870.85,581.32 1871.55,593.31 "/>
    <polygon id="_174" class="fil90" points="-13.4,694.74 -14.1,682.75 1870.39,573.33 1871.08,585.31 "/>
    <polygon id="_175" class="fil90" points="-13.87,686.75 -14.56,674.77 1869.92,565.33 1870.62,577.32 "/>
    <polygon id="_176" class="fil90" points="-14.33,678.76 -15.03,666.77 1869.46,557.34 1870.15,569.33 "/>
    <polygon id="_177" class="fil90" points="-14.8,670.77 -15.49,658.78 1868.99,549.35 1869.69,561.34 "/>
    <polygon id="_178" class="fil90" points="-15.26,662.77 -15.96,650.79 1868.53,541.36 1869.23,553.35 "/>
    <polygon id="_179" class="fil90" points="-15.72,654.79 -16.42,642.79 1868.06,533.37 1868.76,545.35 "/>
    <polygon id="_180" class="fil90" points="-16.19,646.79 -16.88,634.81 1867.6,525.37 1868.3,537.36 "/>
    <polygon id="_181" class="fil90" points="-16.65,638.8 -17.35,626.81 1867.14,517.38 1867.83,529.37 "/>
    <polygon id="_182" class="fil90" points="-17.12,630.81 -17.81,618.82 1866.67,509.39 1867.37,521.38 "/>
    <polygon id="_183" class="fil91" points="-17.58,622.81 -18.28,610.83 1866.21,501.4 1866.9,513.39 "/>
    <polygon id="_184" class="fil91" points="-18.04,614.83 -18.74,602.84 1865.74,493.41 1866.44,505.39 "/>
    <polygon id="_185" class="fil91" points="-18.51,606.83 -19.2,594.85 1865.28,485.42 1865.98,497.4 "/>
    <polygon id="_186" class="fil91" points="-18.97,598.84 -19.67,586.85 1864.82,477.42 1865.51,489.41 "/>
    <polygon id="_187" class="fil91" points="-19.44,590.85 -20.13,578.86 1864.35,469.43 1865.05,481.42 "/>
    <polygon id="_188" class="fil91" points="-19.9,582.86 -20.6,570.87 1863.89,461.44 1864.58,473.43 "/>
    <polygon id="_189" class="fil91" points="-20.36,574.87 -21.06,562.88 1863.42,453.45 1864.12,465.44 "/>
    <polygon id="_190" class="fil91" points="-20.83,566.87 -21.52,554.89 1862.96,445.46 1863.66,457.44 "/>
    <polygon id="_191" class="fil91" points="-21.29,558.88 -21.99,546.89 1862.5,437.46 1863.19,449.45 "/>
    <polygon id="_192" class="fil91" points="-21.76,550.89 -22.45,538.9 1862.03,429.47 1862.73,441.46 "/>
    <polygon id="_193" class="fil91" points="-22.22,542.9 -22.92,530.91 1861.57,421.48 1862.26,433.47 "/>
    <polygon id="_194" class="fil91" points="-22.68,534.91 -23.38,522.92 1861.1,413.49 1861.8,425.48 "/>
    <polygon id="_195" class="fil91" points="-23.15,526.91 -23.84,514.93 1860.64,405.5 1861.34,417.48 "/>
    <polygon id="_196" class="fil91" points="-23.61,518.92 -24.31,506.93 1860.18,397.5 1860.87,409.49 "/>
    <polygon id="_197" class="fil91" points="-24.07,510.93 -24.77,498.94 1859.71,389.51 1860.41,401.5 "/>
    <polygon id="_198" class="fil91" points="-24.54,502.94 -25.23,490.95 1859.25,381.52 1859.94,393.51 "/>
    <polygon id="_199" class="fil91" points="-25.01,494.95 -25.7,482.96 1858.78,373.53 1859.48,385.52 "/>
    <polygon id="_200" class="fil91" points="-25.47,486.95 -26.17,474.97 1858.32,365.54 1859.02,377.52 "/>
    <polygon id="_201" class="fil91" points="-25.93,478.96 -26.63,466.97 1857.86,357.54 1858.55,369.53 "/>
    <polygon id="_202" class="fil91" points="-26.4,470.97 -27.09,458.98 1857.39,349.55 1858.09,361.54 "/>
    <polygon id="_203" class="fil91" points="-26.86,462.98 -27.56,450.99 1856.93,341.56 1857.62,353.55 "/>
    <polygon id="_204" class="fil91" points="-27.33,454.99 -28.02,443 1856.46,333.57 1857.16,345.56 "/>
    <polygon id="_205" class="fil91" points="-27.79,446.99 -28.49,435.01 1856,325.58 1856.7,337.56 "/>
    <polygon id="_206" class="fil92" points="-28.25,439 -28.95,427.01 1855.54,317.58 1856.23,329.57 "/>
    <polygon id="_207" class="fil92" points="-28.72,431.01 -29.41,419.02 1855.07,309.59 1855.77,321.58 "/>
    <polygon id="_208" class="fil92" points="-29.18,423.02 -29.88,411.03 1854.61,301.6 1855.3,313.59 "/>
    <polygon id="_209" class="fil92" points="-29.65,415.03 -30.34,403.04 1854.14,293.61 1854.84,305.6 "/>
    <polygon id="_210" class="fil92" points="-30.11,407.04 -30.81,395.05 1853.68,285.62 1854.37,297.6 "/>
    <polygon id="_211" class="fil92" points="-30.57,399.04 -31.27,387.06 1853.21,277.62 1853.91,289.61 "/>
    <polygon id="_212" class="fil92" points="-31.04,391.05 -31.73,379.06 1852.75,269.64 1853.45,281.62 "/>
    <polygon id="_213" class="fil92" points="-31.5,383.06 -32.2,371.07 1852.29,261.64 1852.98,273.63 "/>
    <polygon id="_214" class="fil92" points="-31.97,375.07 -32.66,363.08 1851.82,253.65 1852.52,265.64 "/>
    <polygon id="_215" class="fil92" points="-32.43,367.08 -33.13,355.09 1851.36,245.66 1852.05,257.64 "/>
    <polygon id="_216" class="fil92" points="-32.89,359.08 -33.59,347.1 1850.89,237.66 1851.59,249.66 "/>
    <polygon id="_217" class="fil92" points="-33.36,351.09 -34.05,339.1 1850.43,229.68 1851.13,241.66 "/>
    <polygon id="_218" class="fil92" points="-33.82,343.1 -34.52,331.11 1849.97,221.68 1850.66,233.67 "/>
    <polygon id="_219" class="fil92" points="-34.29,335.11 -34.98,323.12 1849.5,213.69 1850.2,225.68 "/>
    <polygon id="_220" class="fil92" points="-34.75,327.12 -35.45,315.13 1849.04,205.7 1849.73,217.69 "/>
    <polygon id="_221" class="fil92" points="-35.21,319.12 -35.91,307.14 1848.57,197.71 1849.27,209.7 "/>
    <polygon id="_222" class="fil92" points="-35.68,311.13 -36.37,299.14 1848.11,189.72 1848.81,201.7 "/>
    <polygon id="_223" class="fil92" points="-36.14,303.14 -36.84,291.15 1847.65,181.72 1848.34,193.71 "/>
    <polygon id="_224" class="fil92" points="-36.61,295.15 -37.3,283.16 1847.18,173.73 1847.88,185.72 "/>
    <polygon id="_225" class="fil92" points="-37.07,287.16 -37.77,275.17 1846.72,165.74 1847.41,177.73 "/>
    <polygon id="_226" class="fil92" points="-37.54,279.16 -38.23,267.18 1846.25,157.75 1846.95,169.74 "/>
    <polygon id="_227" class="fil92" points="-38,271.17 -38.7,259.18 1845.79,149.76 1846.49,161.74 "/>
    <polygon id="_228" class="fil92" points="-38.46,263.18 -39.16,251.19 1845.33,141.76 1846.02,153.75 "/>
    <polygon id="_229" class="fil92" points="-38.93,255.19 -39.62,243.2 1844.86,133.77 1845.56,145.76 "/>
    <polygon id="_230" class="fil92" points="-39.39,247.2 -40.09,235.21 1844.4,125.78 1845.09,137.77 "/>
    <polygon id="_231" class="fil92" points="-39.86,239.2 -40.55,227.22 1843.93,117.79 1844.63,129.78 "/>
    <polygon id="_232" class="fil92" points="-40.32,231.21 -41.02,219.22 1843.47,109.8 1844.17,121.78 "/>
    <polygon id="_233" class="fil92" points="-40.78,223.22 -41.48,211.24 1843.01,101.8 1843.7,113.79 "/>
    <polygon id="_234" class="fil92" points="-41.25,215.23 -41.94,203.24 1842.54,93.81 1843.23,105.8 "/>
    <polygon id="_235" class="fil92" points="-41.71,207.24 -42.41,195.25 1842.07,85.82 1842.77,97.81 "/>
    <polygon id="_236" class="fil92" points="-42.18,199.24 -42.87,187.26 1841.61,77.83 1842.31,89.82 "/>
    <polygon id="_237" class="fil92" points="-42.64,191.26 -43.34,179.26 1841.15,69.84 1841.85,81.82 "/>
    <polygon id="_238" class="fil92" points="-43.1,183.26 -43.8,171.28 1840.68,61.84 1841.38,73.83 "/>
    <polygon id="_239" class="fil92" points="-43.57,175.27 -44.26,163.28 1840.22,53.85 1840.91,65.84 "/>
    <polygon id="_240" class="fil92" points="-44.03,167.28 -44.73,155.29 1839.76,45.86 1840.45,57.85 "/>
    <polygon id="_241" class="fil92" points="-44.5,159.28 -45.19,147.3 1839.29,37.87 1839.99,49.86 "/>
    <polygon id="_242" class="fil92" points="-44.96,151.3 -45.66,139.31 1838.83,29.88 1839.52,41.86 "/>
    <polygon id="_243" class="fil92" points="-45.42,143.3 -46.12,131.32 1838.36,21.89 1839.06,33.87 "/>
    <polygon id="_244" class="fil92" points="-45.89,135.31 -46.58,123.32 1837.9,13.89 1838.6,25.88 "/>
    <polygon id="_245" class="fil92" points="-46.35,127.32 -47.05,115.33 1837.44,5.9 1838.13,17.89 "/>
    <polygon id="_246" class="fil92" points="-46.82,119.33 -47.51,107.34 1836.97,-2.09 1837.67,9.9 "/>
    <polygon id="_247" class="fil92" points="-47.28,111.34 -47.98,99.35 1836.51,-10.08 1837.2,1.91 "/>
    <polygon id="_248" class="fil92" points="-47.74,103.34 -48.44,91.36 1836.04,-18.07 1836.74,-6.09 "/>
    <polygon id="_249" class="fil92" points="-48.21,95.35 -48.9,83.36 1835.58,-26.07 1836.28,-14.08 "/>
    <polygon id="_250" class="fil92" points="-48.67,87.36 -49.37,75.37 1835.12,-34.06 1835.81,-22.07 "/>
    <polygon id="_251" class="fil92" points="-49.14,79.37 -49.83,67.38 1834.65,-42.05 1835.35,-30.06 "/>
    <polygon id="_252" class="fil92" points="-49.6,71.38 -50.3,59.39 1834.19,-50.04 1834.88,-38.05 "/>
    <polygon id="_253" class="fil92" points="-50.06,63.38 -50.76,51.4 1833.72,-58.03 1834.42,-46.05 "/>
    <polygon id="_254" class="fil92" points="-50.53,55.39 -51.23,43.4 1833.26,-66.03 1833.96,-54.04 "/>
    <polygon id="_255" class="fil92" points="-50.99,47.4 -51.07,46.02 1833.41,-63.4 1833.49,-62.03 "/>
   </g>
  </g>
  <polygon class="fil93" points="430.57,1359.48 430.57,664.52 566.87,664.52 566.87,968.11 571.01,968.11 802.31,664.52 952.04,664.52 740.36,938.17 990.25,1359.48 840.52,1359.48 659.81,1045.56 566.87,1163.28 566.87,1359.48 "/>
  <path id="_1_0" class="fil93" d="M1591.24 1359.48l-143.54 0 -50.6 -179.68 -224.08 0 -50.6 179.68 -138.37 0 222.01 -694.95 161.09 0 224.08 694.95zm-367.62 -363.48l-21.69 77.45 166.26 0 -21.69 -77.45c-10.33,-36.14 -20.65,-73.32 -29.94,-112.55 -10.33,-38.21 -20.66,-76.41 -29.95,-113.59l-4.13 0c-9.3,37.18 -18.59,75.38 -28.91,114.62 -10.33,38.21 -20.65,75.38 -29.95,111.52z"/>
 </g>
</svg>
